@startuml FamilyDiary class diagram

skinparam Shadowing false
skinparam PackageStyle rectangle

class FamilyMember {
    Surname: string
    BirthName: string
    FirstName: string
    EMail: string
    documents: [Document]

    constructor( {firstName: string, birthName: string, lastName: string, email: string } =)
      addDocument(document: Document)
}

class Document {
filename: string
constructor(filename: string)
}

FamilyMember "1" ---->"0..*" Document: uploads, stores, deletes
Document ----> "0..* " FamilyMember: is downloaded

@enduml